{"title":"Lewis S09E04 - Magnum Opus pt2 x264 RB58.mp4","uid":12641182,"size":521837301,"categoryP":"video","categoryS":"tv_shows","magnet":"?xt=urn:btih:554e1f5119e95e8b4a20ceb328756e8557276e22&amp;dn=Lewis+S09E04+-+Magnum+Opus+pt2+x264+RB58.mp4&amp;tr=udp%3A%2F%2Ftracker.leechers-paradise.org%3A6969&amp;tr=udp%3A%2F%2Fzer0day.ch%3A1337&amp;tr=udp%3A%2F%2Fopen.demonii.com%3A1337&amp;tr=udp%3A%2F%2Ftracker.coppersurfer.tk%3A6969&amp;tr=udp%3A%2F%2Fexodus.desync.com%3A6969","seeders":0,"leechers":1,"uploader":"RedBaron58","files":1,"time":1445995581,"description":"Lewis S09E04 - Magnum Opus pt2 x264 mp4\r\n \nhttp://www.imdb.com/title/tt0874608/\r\n\r\n\r\nPlease be patient My intial upload speed is limited.\r\nThank you for your kind comments and feedback on my other torrents, your feedback is welcome.\r\n\r\n\r\nAbout the Episode:\r\nAfter finding an unusual tattoo on the college dean's body and two more murder victims with the same \r\ninking, Lewis and Hathaway discover that the tattoo signifies membership of a secret esoteric society \r\nthat believes past sins can be forgiven by the literal sharing of guilt. \r\nBefore the fourth and final murder takes place, the team must uncover the guilty secret that the victims \r\nshare in order to learn the identity of the killer.\r\n \r\nStarring Kevin Whately, Laurence Fox and Steve Toussaint\r\n\r\n\r\nI hope you enjoy.\r\n\r\n\r\nTechnical:\r\n\r\nGeneral\r\nComplete name                            : H:Lewis S09E04 - Magnum Opus pt2 x264 RB58.mp4\r\nFormat                                   : MPEG-4\r\nFormat profile                           : Base Media\r\nCodec ID                                 : isom\r\nFile size                                : 498 MiB\r\nDuration                                 : 45mn 38s\r\nOverall bit rate                         : 1 525 Kbps\r\nWriting application                      : Lavf54.63.104\r\n\r\nVideo\r\nID                                       : 1\r\nFormat                                   : AVC\r\nFormat/Info                              : Advanced Video Codec\r\nFormat profile                           :   \r\nFormat settings, CABAC                   : Yes\r\nFormat settings, ReFrames                : 4 frames\r\nCodec ID                                 : avc1\r\nCodec ID/Info                            : Advanced Video Coding\r\nDuration                                 : 45mn 38s\r\nBit rate                                 : 1 400 Kbps\r\nWidth                                    : 832 pixels\r\nHeight                                   : 468 pixels\r\nDisplay aspect ratio                     : 16:9\r\nFrame rate mode                          : Constant\r\nFrame rate                               : 25.000 fps\r\nColor space                              : YUV\r\nChroma subsampling                       : 4:2:0\r\nBit depth                                : 8 bits\r\nScan type                                : Progressive\r\nBits/(Pixel*Frame)                       : 0.144\r\nStream size                              : 457 MiB (92%)\r\nWriting library                          : x264 core 123 r2189 35cf912\r\nEncoding settings                        : cabac=1 / ref=3 / deblock=1:0:0\r\n\r\nAudio\r\nID                                       : 2\r\nFormat                                   : AAC\r\nFormat/Info                              : Advanced Audio Codec\r\nFormat profile                           : LC\r\nCodec ID                                 : 40\r\nDuration                                 : 45mn 38s\r\nBit rate mode                            : Constant\r\nBit rate                                 : 116 Kbps\r\nChannel(s)                               : 2 channels\r\nChannel positions                        : Front: L R\r\nSampling rate                            : 48.0 KHz\r\nCompression mode                         : Lossy\r\nStream size                              : 37.8 MiB (8%)\r\nLanguage                                 : English","torrent":{"xt":"urn:btih:554e1f5119e95e8b4a20ceb328756e8557276e22","amp;dn":"Lewis+S09E04+-+Magnum+Opus+pt2+x264+RB58.mp4","amp;tr":["udp%3A%2F%2Ftracker.leechers-paradise.org%3A6969","udp%3A%2F%2Fzer0day.ch%3A1337","udp%3A%2F%2Fopen.demonii.com%3A1337","udp%3A%2F%2Ftracker.coppersurfer.tk%3A6969","udp%3A%2F%2Fexodus.desync.com%3A6969"],"infoHash":"554e1f5119e95e8b4a20ceb328756e8557276e22","infoHashBuffer":{"type":"Buffer","data":[85,78,31,81,25,233,94,139,74,32,206,179,40,117,110,133,87,39,110,34]},"announce":[],"urlList":[]}}